# xmcd CD database file
#
# Track frame offsets:
#	150
#	17223
#	34083
#	52175
#	69055
#	86444
#	105315
#	120061
#	135036
#	155888
#	178029
#	202802
#
# Disc length: 2907 seconds
#
# Revision: 1
# Processed by: cddbd v1.5.2PL0 Copyright (c) Steve Scherf et al.
# Submitted via: CDex 1.79
#
DISCID=8a0b590c
DTITLE=Owen Temple - Two Thousand Miles
DYEAR=2006
DGENRE=Country
TTITLE0=You Want To Wear That Ring
TTITLE1=Red Wine And Tequila
TTITLE2=Swear It Off Again
TTITLE3=Two Thousand Miles
TTITLE4=Can't Drink Enough To Sing
TTITLE5=Like We Still Care
TTITLE6=I Just Can't Quit Loving You
TTITLE7=Demolition Derby
TTITLE8=You Don't Have To Be Lonely
TTITLE9=The Pluto Blues
TTITLE10=Rivers Run From Many Waters
TTITLE11=On The Lonesome Road
EXTD=YEAR: 2006
EXTT0=
EXTT1=
EXTT2=
EXTT3=
EXTT4=
EXTT5=
EXTT6=
EXTT7=
EXTT8=
EXTT9=
EXTT10=
EXTT11=
PLAYORDER=
